<svg width="1344" height="672" viewBox="0 0 1344 672" fill="none" xmlns="http://www.w3.org/2000/svg">
<path d="M1004 372V419.656L1042.5 395.693L1004 372Z" fill="white"/>
<path d="M1055.71 376.357L1087.15 395.705L1055.71 415.273V376.357Z" stroke="white" stroke-width="4.86943"/>
<path d="M1102.27 372V419.656L1140.77 395.693L1102.27 372Z" fill="white"/>
<path d="M1153.71 376.357L1185.15 395.705L1153.71 415.273V376.357Z" stroke="white" stroke-width="4.86943"/>
<path d="M1200.55 372V419.656L1239.05 395.693L1200.55 372Z" fill="white"/>
<path d="M1251.98 376.357L1283.42 395.705L1251.98 415.273V376.357Z" stroke="white" stroke-width="4.86943"/>
<rect y="87" width="341" height="86" fill="white"/>
<rect x="737" y="479" width="328" height="188" stroke="white" stroke-width="10"/>
<rect x="742" y="484" width="320" height="32" fill="white"/>
<path d="M711 3L816 108" stroke="#570A17" stroke-width="3.28125" stroke-miterlimit="10" stroke-linecap="square" stroke-linejoin="round"/>
<path d="M711 16.125L802.875 108" stroke="#570A17" stroke-width="3.28125" stroke-miterlimit="10" stroke-linecap="square" stroke-linejoin="round"/>
<path d="M711 29.25L789.75 108" stroke="#570A17" stroke-width="3.28125" stroke-miterlimit="10" stroke-linecap="square" stroke-linejoin="round"/>
<path d="M711 42.375L776.625 108" stroke="#570A17" stroke-width="3.28125" stroke-miterlimit="10" stroke-linecap="square" stroke-linejoin="round"/>
<path d="M711 55.5L763.5 108" stroke="#570A17" stroke-width="3.28125" stroke-miterlimit="10" stroke-linecap="square" stroke-linejoin="round"/>
<path d="M711 68.625L750.375 108" stroke="#570A17" stroke-width="3.28125" stroke-miterlimit="10" stroke-linecap="square" stroke-linejoin="round"/>
<path d="M711 81.75L737.25 108" stroke="#570A17" stroke-width="3.28125" stroke-miterlimit="10" stroke-linecap="square" stroke-linejoin="round"/>
<path d="M711 94.875L724.125 108" stroke="#570A17" stroke-width="3.28125" stroke-miterlimit="10" stroke-linecap="square" stroke-linejoin="round"/>
<path d="M921 94.875L829.125 3" stroke="#570A17" stroke-width="3.28125" stroke-miterlimit="10" stroke-linecap="square" stroke-linejoin="round"/>
<path d="M921 81.75L842.25 3" stroke="#570A17" stroke-width="3.28125" stroke-miterlimit="10" stroke-linecap="square" stroke-linejoin="round"/>
<path d="M921 68.625L855.375 3" stroke="#570A17" stroke-width="3.28125" stroke-miterlimit="10" stroke-linecap="square" stroke-linejoin="round"/>
<path d="M921 55.5L868.5 3" stroke="#570A17" stroke-width="3.28125" stroke-miterlimit="10" stroke-linecap="square" stroke-linejoin="round"/>
<path d="M921 42.375L881.625 3" stroke="#570A17" stroke-width="3.28125" stroke-miterlimit="10" stroke-linecap="square" stroke-linejoin="round"/>
<path d="M921 29.25L894.75 3" stroke="#570A17" stroke-width="3.28125" stroke-miterlimit="10" stroke-linecap="square" stroke-linejoin="round"/>
<path d="M921 16.125L907.875 3" stroke="#570A17" stroke-width="3.28125" stroke-miterlimit="10" stroke-linecap="square" stroke-linejoin="round"/>
<path d="M816 3L921 108" stroke="#570A17" stroke-width="3.28125" stroke-miterlimit="10" stroke-linecap="square" stroke-linejoin="round"/>
<path d="M802.875 3L907.875 108" stroke="#570A17" stroke-width="3.28125" stroke-miterlimit="10" stroke-linecap="square" stroke-linejoin="round"/>
<path d="M789.75 3L894.75 108" stroke="#570A17" stroke-width="3.28125" stroke-miterlimit="10" stroke-linecap="square" stroke-linejoin="round"/>
<path d="M776.625 3L881.625 108" stroke="#570A17" stroke-width="3.28125" stroke-miterlimit="10" stroke-linecap="square" stroke-linejoin="round"/>
<path d="M763.5 3L868.5 108" stroke="#570A17" stroke-width="3.28125" stroke-miterlimit="10" stroke-linecap="square" stroke-linejoin="round"/>
<path d="M750.375 3L855.375 108" stroke="#570A17" stroke-width="3.28125" stroke-miterlimit="10" stroke-linecap="square" stroke-linejoin="round"/>
<path d="M737.25 3L842.25 108" stroke="#570A17" stroke-width="3.28125" stroke-miterlimit="10" stroke-linecap="square" stroke-linejoin="round"/>
<path d="M724.125 3L829.125 108" stroke="#570A17" stroke-width="3.28125" stroke-miterlimit="10" stroke-linecap="square" stroke-linejoin="round"/>
<rect x="40" y="192" width="195" height="319" fill="#D9D9D9"/>
<rect x="438.5" y="11.5" width="35" height="19" stroke="white" stroke-width="5"/>
<rect x="134" y="33" width="983" height="614" fill="#1E1F22"/>
<rect opacity="0.74" x="153.625" y="45.8682" width="943.75" height="588.264" stroke="black" stroke-width="3.25008"/>
<mask id="mask0_124_1401" style="mask-type:alpha" maskUnits="userSpaceOnUse" x="134" y="33" width="983" height="614">
<rect x="134" y="33" width="983" height="614" fill="#1E1F22"/>
</mask>
<g mask="url(#mask0_124_1401)">
<path d="M955 591.293C955 601.342 963.245 609.586 973.294 609.586C983.342 609.586 991.587 601.342 991.587 591.293C991.587 581.245 983.342 573 973.294 573C962.987 573 955 581.245 955 591.293ZM988.753 591.293C988.753 600.053 981.796 607.01 973.036 607.01C964.276 607.01 957.319 600.053 957.319 591.293C957.319 582.533 964.276 575.576 973.036 575.576C981.796 575.576 988.753 582.533 988.753 591.293Z" fill="white"/>
<path d="M961.184 591.293C961.184 584.748 966.49 579.441 973.036 579.441C979.582 579.441 984.888 584.748 984.888 591.293C984.888 597.839 979.582 603.146 973.036 603.146C966.49 603.146 961.184 597.839 961.184 591.293Z" fill="white"/>
<path d="M972.495 608.707V723.207" stroke="white" stroke-width="4"/>
<path d="M279.001 101.914C279.001 91.8655 287.246 83.6206 297.294 83.6206C307.343 83.6206 315.587 91.8655 315.587 101.914C315.587 111.962 307.343 120.207 297.294 120.207C286.988 120.207 279.001 111.962 279.001 101.914ZM312.753 101.914C312.753 93.1537 305.797 86.1971 297.036 86.1971C288.276 86.1971 281.319 93.1537 281.319 101.914C281.319 110.674 288.276 117.631 297.036 117.631C305.797 117.631 312.753 110.674 312.753 101.914Z" fill="white"/>
<path d="M285.185 101.914C285.185 108.459 290.491 113.766 297.037 113.766C303.582 113.766 308.889 108.459 308.889 101.914C308.889 95.3678 303.582 90.0615 297.037 90.0615C290.491 90.0615 285.185 95.3678 285.185 101.914Z" fill="white"/>
<path d="M296.495 84.5V-30" stroke="white" stroke-width="4"/>
</g>
<path d="M16.6 144.34V115.66L23.26 109H41.38L48.04 115.66V144.34L41.38 151H23.26L16.6 144.34ZM38.14 145L41.08 142.12V117.88L38.14 115H26.5L23.56 117.88V142.12L26.5 145H38.14ZM62.5933 116.38L53.4133 121.12V114.7L63.7933 109H69.5533V151H62.5933V116.38ZM77.6547 144.34V115.66L84.3147 109H102.435L109.095 115.66V144.34L102.435 151H84.3147L77.6547 144.34ZM99.1947 145L102.135 142.12V117.88L99.1947 115H87.5547L84.6147 117.88V142.12L87.5547 145H99.1947ZM123.648 116.38L114.468 121.12V114.7L124.848 109H130.608V151H123.648V116.38ZM138.709 144.34V115.66L145.369 109H163.489L170.149 115.66V144.34L163.489 151H145.369L138.709 144.34ZM160.249 145L163.189 142.12V117.88L160.249 115H148.609L145.669 117.88V142.12L148.609 145H160.249ZM184.703 116.38L175.523 121.12V114.7L185.903 109H191.663V151H184.703V116.38ZM199.764 144.34V115.66L206.424 109H224.544L231.204 115.66V144.34L224.544 151H206.424L199.764 144.34ZM221.304 145L224.244 142.12V117.88L221.304 115H209.664L206.724 117.88V142.12L209.664 145H221.304Z" fill="#C80F2E"/>
<path d="M410 410.4H274V358L396.8 184H456.4V370.4H490.4V410.4H456.4V464H410V410.4ZM411.6 371.6V233.2H409.6L319.2 362.4V371.6H411.6ZM520.516 419.6V228.4L564.916 184H685.716L730.116 228.4V419.6L685.716 464H564.916L520.516 419.6ZM664.116 424L683.716 404.8V243.2L664.116 224H586.516L566.916 243.2V404.8L586.516 424H664.116ZM895.938 410.4H759.938V358L882.738 184H942.338V370.4H976.338V410.4H942.338V464H895.938V410.4ZM897.538 371.6V233.2H895.538L805.138 362.4V371.6H897.538Z" fill="white"/>
<path d="M138.6 144.34V115.66L145.26 109H163.38L170.04 115.66V144.34L163.38 151H145.26L138.6 144.34ZM160.14 145L163.08 142.12V117.88L160.14 115H148.5L145.56 117.88V142.12L148.5 145H160.14ZM184.593 116.38L175.413 121.12V114.7L185.793 109H191.553V151H184.593V116.38ZM199.655 144.34V115.66L206.315 109H224.435L231.095 115.66V144.34L224.435 151H206.315L199.655 144.34ZM221.195 145L224.135 142.12V117.88L221.195 115H209.555L206.615 117.88V142.12L209.555 145H221.195Z" fill="white"/>
<path d="M557.88 132.576V109.824L563.304 104.4H579.912L585.336 109.824V132.576L579.912 138H563.304L557.88 132.576ZM577.032 133.2L579.768 130.512V111.888L577.032 109.2H566.184L563.448 111.888V130.512L566.184 133.2H577.032ZM591.114 132.576V109.824L596.538 104.4H613.146L618.57 109.824V132.576L613.146 138H596.538L591.114 132.576ZM610.266 133.2L613.002 130.512V111.888L610.266 109.2H599.418L596.682 111.888V130.512L599.418 133.2H610.266ZM624.829 104.4H645.277L650.173 109.344V120.768L645.229 125.76H630.397V138H624.829V104.4ZM642.781 121.056L644.701 119.136V111.024L642.781 109.104H630.397V121.056H642.781ZM654.015 133.056V128.832H659.487V131.376L661.311 133.2H671.775L673.695 131.28V125.088L671.823 123.216H659.055L654.111 118.32V109.344L659.055 104.4H673.839L678.783 109.344V113.616H673.311V111.024L671.439 109.2H661.455L659.583 111.024V116.592L661.455 118.416H674.223L679.167 123.36V132.96L674.127 138H658.959L654.015 133.056ZM685.115 110.832V104.4H690.683V110.832L689.915 128.928H685.883L685.115 110.832ZM684.683 136.176V133.632L686.507 131.808H689.291L691.115 133.632V136.176L689.291 138H686.507L684.683 136.176Z" fill="white"/>
<path d="M84.9009 219.332L187.133 321.564" stroke="white" stroke-width="24.8527" stroke-miterlimit="10"/>
<path d="M185.565 219.333L83.3325 321.565" stroke="white" stroke-width="24.8527" stroke-miterlimit="10"/>
<path d="M1050.53 570.191L1157.09 461.463" stroke="white" stroke-width="26.1699" stroke-miterlimit="10"/>
<path d="M1049.47 464.197L1158.19 570.76" stroke="white" stroke-width="26.1699" stroke-miterlimit="10"/>
<path d="M964 68.3362L974.966 74.4286V62L964 68.3362Z" fill="white"/>
<path d="M990.563 68.3362L1001.29 74.4286V62L990.563 68.3362Z" fill="white"/>
<path d="M1016.88 68.3362L1027.61 74.4286V62L1016.88 68.3362Z" fill="white"/>
<path d="M1043.2 68.3362L1054.17 74.4286V62L1043.2 68.3362Z" fill="white"/>
<path d="M1069.76 68.3362L1080.49 74.4286V62L1069.76 68.3362Z" fill="white"/>
<path d="M286.487 612.336L275.521 618.429V606L286.487 612.336Z" fill="white"/>
<path d="M259.924 612.336L249.202 618.429V606L259.924 612.336Z" fill="white"/>
<path d="M233.605 612.336L222.882 618.429V606L233.605 612.336Z" fill="white"/>
<path d="M207.286 612.336L196.319 618.429V606L207.286 612.336Z" fill="white"/>
<path d="M180.722 612.336L169.999 618.429V606L180.722 612.336Z" fill="white"/>
<rect x="354" y="504" width="543" height="75" fill="#C80F2E"/>
<path d="M414.36 524.4H434.808L439.704 529.344V540.768L434.76 545.76H419.928V558H414.36V524.4ZM432.312 541.056L434.232 539.136V531.024L432.312 529.104H419.928V541.056H432.312ZM450.672 524.4H455.952L468.096 558H462.432L459.552 550.032H447.024L444.144 558H438.48L450.672 524.4ZM458.256 545.376L453.312 531.168H453.216L448.368 545.376H458.256ZM470.739 552.576V529.824L476.163 524.4H492.195L497.523 529.728V534.144H491.955V531.696L489.411 529.2H479.043L476.307 531.888V550.512L479.043 553.2H489.411L492.099 550.56V544.464H484.755V539.664H497.523V552.576L492.099 558H476.163L470.739 552.576ZM503.282 524.4H526.706V529.152H508.85V538.752H525.314V543.456H508.85V553.248H526.706V558H503.282V524.4ZM544.579 524.4H549.667L565.507 548.832H565.603V524.4H570.931V558H565.843L550.003 533.616H549.907V558H544.579V524.4ZM577.193 552.576V529.824L582.617 524.4H599.225L604.649 529.824V552.576L599.225 558H582.617L577.193 552.576ZM596.345 553.2L599.081 550.512V531.888L596.345 529.2H585.497L582.761 531.888V550.512L585.497 553.2H596.345ZM617.884 529.152H607.804V524.4H633.532V529.152H623.452V558H617.884V529.152ZM650.469 524.4H673.413V529.152H656.037V539.424H671.109V544.176H656.037V558H650.469V524.4ZM677.036 552.576V529.824L682.46 524.4H699.068L704.492 529.824V552.576L699.068 558H682.46L677.036 552.576ZM696.188 553.2L698.924 550.512V531.888L696.188 529.2H685.34L682.604 531.888V550.512L685.34 553.2H696.188ZM710.751 552.384V524.4H716.319V550.512L719.055 553.2H728.943L731.679 550.512V524.4H737.247V552.384L731.631 558H716.367L710.751 552.384ZM743.985 524.4H749.073L764.913 548.832H765.009V524.4H770.337V558H765.249L749.409 533.616H749.313V558H743.985V524.4ZM777.079 524.4H797.863L803.479 530.016V552.384L797.863 558H777.079V524.4ZM795.175 553.2L797.911 550.512V531.888L795.175 529.2H782.647V553.2H795.175ZM807.518 556.176V553.392L809.342 551.568H812.414L814.19 553.44V556.128L812.414 558H809.342L807.518 556.176ZM818.393 556.176V553.392L820.217 551.568H823.289L825.065 553.44V556.128L823.289 558H820.217L818.393 556.176ZM829.268 556.176V553.392L831.092 551.568H834.164L835.94 553.44V556.128L834.164 558H831.092L829.268 556.176Z" fill="white"/>
<path d="M182 372L77 477M168.875 372L77 463.875M155.75 372L77 450.75M142.625 372L77 437.625M129.5 372L77 424.5M116.375 372L77 411.375M103.25 372L77 398.25M90.125 372L77 385.125M90.125 582L182 490.125M103.25 582L182 503.25M116.375 582L182 516.375M129.5 582L182 529.5M142.625 582L182 542.625M155.75 582L182 555.75M168.875 582L182 568.875M182 477L77 582M182 463.875L77 568.875M182 450.75L77 555.75M182 437.625L77 542.625M182 424.5L77 529.5M182 411.375L77 516.375M182 398.25L77 503.25M182 385.125L77 490.125" stroke="#C80F2E" stroke-width="3.28125" stroke-miterlimit="10" stroke-linecap="square" stroke-linejoin="round"/>
<mask id="mask1_124_1401" style="mask-type:alpha" maskUnits="userSpaceOnUse" x="74" y="369" width="111" height="216">
<path d="M182 372L77 477M168.875 372L77 463.875M155.75 372L77 450.75M142.625 372L77 437.625M129.5 372L77 424.5M116.375 372L77 411.375M103.25 372L77 398.25M90.125 372L77 385.125M90.125 582L182 490.125M103.25 582L182 503.25M116.375 582L182 516.375M129.5 582L182 529.5M142.625 582L182 542.625M155.75 582L182 555.75M168.875 582L182 568.875M182 477L77 582M182 463.875L77 568.875M182 450.75L77 555.75M182 437.625L77 542.625M182 424.5L77 529.5M182 411.375L77 516.375M182 398.25L77 503.25M182 385.125L77 490.125" stroke="#C80F2E" stroke-width="3.28125" stroke-miterlimit="10" stroke-linecap="square" stroke-linejoin="round"/>
</mask>
<g mask="url(#mask1_124_1401)">
<rect x="63" y="511" width="71" height="71" fill="white"/>
</g>
<rect y="392" width="59" height="59" fill="#1E1F22"/>
<path d="M16.4238 409.018L42.8654 435.459" stroke="white" stroke-width="3" stroke-miterlimit="10"/>
<path d="M42.4596 409.018L16.0181 435.459" stroke="white" stroke-width="3" stroke-miterlimit="10"/>
<rect x="408" y="2" width="14" height="14" fill="white"/>
<rect x="495" y="42" width="14" height="14" fill="white"/>
<rect x="481" y="62" width="5" height="5" fill="white"/>
<g filter="url(#filter0_d_124_1401)">
<g filter="url(#filter1_d_124_1401)">
<path d="M1033.15 250L1015.92 189.565L1073 216.87L1046.88 226.123L1033.15 250Z" fill="#C80F2E"/>
<path d="M1031.29 250.519L1032.55 254.934L1034.84 250.953L1048.21 227.692L1073.65 218.678L1078.01 217.135L1073.84 215.141L1016.76 187.836L1012.89 185.983L1014.06 190.084L1031.29 250.519Z" stroke="white" stroke-width="3.85779"/>
</g>
</g>
<rect x="1070.5" y="252.5" width="251" height="56" fill="#C80F2E" stroke="white" stroke-width="5"/>
<path d="M1168.24 269.6H1183.86V272.768H1171.95V279.168H1182.93V282.304H1171.95V288.832H1183.86V292H1168.24V269.6ZM1204.39 284.768V292H1200.68V285.664L1198.37 283.136H1191.08V292H1187.37V269.6H1201L1204.26 272.896V279.776L1201.93 282.112L1204.39 284.768ZM1191.08 280.064H1199.33L1200.61 278.784V274.016L1199.33 272.736H1191.08V280.064ZM1225.73 284.768V292H1222.02V285.664L1219.72 283.136H1212.42V292H1208.71V269.6H1222.34L1225.6 272.896V279.776L1223.27 282.112L1225.73 284.768ZM1212.42 280.064H1220.68L1221.96 278.784V274.016L1220.68 272.736H1212.42V280.064ZM1229.73 288.384V273.216L1233.35 269.6H1244.42L1248.04 273.216V288.384L1244.42 292H1233.35L1229.73 288.384ZM1242.5 288.8L1244.32 287.008V274.592L1242.5 272.8H1235.27L1233.44 274.592V287.008L1235.27 288.8H1242.5ZM1269.23 284.768V292H1265.52V285.664L1263.22 283.136H1255.92V292H1252.21V269.6H1265.84L1269.1 272.896V279.776L1266.77 282.112L1269.23 284.768ZM1255.92 280.064H1264.18L1265.46 278.784V274.016L1264.18 272.736H1255.92V280.064Z" fill="white"/>
<path d="M1137.72 263L1120 295.639H1155.44L1137.72 263Z" fill="white"/>
<rect x="1136.03" y="286.162" width="3.5633" height="4.45413" fill="#C80F2E"/>
<rect x="1136.03" y="273.69" width="3.5633" height="10.6899" fill="#C80F2E"/>
<defs>
<filter id="filter0_d_124_1401" x="1009.86" y="182.4" width="73.1619" height="82.611" filterUnits="userSpaceOnUse" color-interpolation-filters="sRGB">
<feFlood flood-opacity="0" result="BackgroundImageFix"/>
<feColorMatrix in="SourceAlpha" type="matrix" values="0 0 0 0 0 0 0 0 0 0 0 0 0 0 0 0 0 0 127 0" result="hardAlpha"/>
<feOffset dy="5.14372"/>
<feComposite in2="hardAlpha" operator="out"/>
<feColorMatrix type="matrix" values="0 0 0 0 0 0 0 0 0 0 0 0 0 0 0 0 0 0 0.1 0"/>
<feBlend mode="normal" in2="BackgroundImageFix" result="effect1_dropShadow_124_1401"/>
<feBlend mode="normal" in="SourceGraphic" in2="effect1_dropShadow_124_1401" result="shape"/>
</filter>
<filter id="filter1_d_124_1401" x="1003.93" y="179.439" width="85.008" height="89.3134" filterUnits="userSpaceOnUse" color-interpolation-filters="sRGB">
<feFlood flood-opacity="0" result="BackgroundImageFix"/>
<feColorMatrix in="SourceAlpha" type="matrix" values="0 0 0 0 0 0 0 0 0 0 0 0 0 0 0 0 0 0 127 0" result="hardAlpha"/>
<feOffset dy="2.96154"/>
<feGaussianBlur stdDeviation="2.96154"/>
<feComposite in2="hardAlpha" operator="out"/>
<feColorMatrix type="matrix" values="0 0 0 0 0 0 0 0 0 0 0 0 0 0 0 0 0 0 0.08 0"/>
<feBlend mode="normal" in2="BackgroundImageFix" result="effect1_dropShadow_124_1401"/>
<feBlend mode="normal" in="SourceGraphic" in2="effect1_dropShadow_124_1401" result="shape"/>
</filter>
</defs>
</svg>
