<svg width="33" height="38" viewBox="0 0 33 38" fill="none" xmlns="http://www.w3.org/2000/svg">
<path fill-rule="evenodd" clip-rule="evenodd" d="M1.63181 0.885864H4.99874L11.1314 6.77799H11.7326V6.41725H20.6309V6.77799H21.1119L27.3648 0.885864H30.6115L32.0544 2.80983V8.22097L29.7697 13.0309V16.8788L28.8077 18.8028V23.2519L24.2383 29.8655V32.1502L20.2702 35.2767L18.9475 37.2006H13.4161L12.0933 35.2767L8.12517 32.1502V29.8655L3.55577 23.2519V18.8028L2.59379 16.8788V13.0309L0.309082 8.22097V2.80983L1.63181 0.885864ZM20.0297 23.7329V18.442L23.2764 16.2776L25.4408 17.961V19.885L20.0297 23.7329ZM9.08715 16.2776L6.9227 17.961V19.885L12.3338 23.7329V18.442L9.08715 16.2776ZM15.5805 32.2705L13.1756 30.2263H19.1879L16.783 32.2705V33.8337H15.5805V32.2705Z" fill="#C80F2E"/>
</svg>
